<?xml version="1.0" encoding="UTF-8" standalone="no"?>
<!-- Created with Inkscape (http://www.inkscape.org/) -->

<svg
   width="210mm"
   height="297mm"
   viewBox="0 0 210 297"
   version="1.1"
   id="svg5"
   inkscape:version="1.1 (c68e22c387, 2021-05-23)"
   sodipodi:docname="desenhovirus.svg"
   inkscape:export-filename="C:\Users\Helena\desenhovirus.png"
   inkscape:export-xdpi="96"
   inkscape:export-ydpi="96"
   xmlns:inkscape="http://www.inkscape.org/namespaces/inkscape"
   xmlns:sodipodi="http://sodipodi.sourceforge.net/DTD/sodipodi-0.dtd"
   xmlns="http://www.w3.org/2000/svg"
   xmlns:svg="http://www.w3.org/2000/svg">
  <sodipodi:namedview
     id="namedview7"
     pagecolor="#ffffff"
     bordercolor="#666666"
     borderopacity="1.0"
     inkscape:pageshadow="2"
     inkscape:pageopacity="0.0"
     inkscape:pagecheckerboard="0"
     inkscape:document-units="mm"
     showgrid="false"
     inkscape:zoom="0.92648709"
     inkscape:cx="155.96548"
     inkscape:cy="288.72502"
     inkscape:window-width="1366"
     inkscape:window-height="705"
     inkscape:window-x="-8"
     inkscape:window-y="-8"
     inkscape:window-maximized="1"
     inkscape:current-layer="layer1" />
  <defs
     id="defs2" />
  <g
     inkscape:label="Camada 1"
     inkscape:groupmode="layer"
     id="layer1">
    <g
       data-paper-data="{&quot;isPaintingLayer&quot;:true}"
       fill-rule="nonzero"
       stroke-linejoin="miter"
       stroke-miterlimit="10"
       stroke-dasharray="none"
       stroke-dashoffset="0"
       style="mix-blend-mode:normal"
       id="g191"
       transform="matrix(0.99212041,0,0,0.99212041,-132.44544,-75.488411)">
      <path
         d="m 306.98107,194.62068 c -1.60857,-7.42978 6.32028,0.88501 15.53319,-1.10963 9.21294,-1.99464 14.88437,-9.31054 16.49294,-1.88075 0.79683,3.68045 -6.25322,21.34696 -10.23861,23.70401 -4.05999,2.40116 -5.29122,-8.82989 -9.5384,-10.9722 -7.0328,-3.54742 -10.64055,-2.31164 -12.24912,-9.74142 z"
         fill="#ae0000"
         stroke="none"
         stroke-width="0"
         stroke-linecap="butt"
         id="path105" />
      <path
         d="m 227.72806,113.80544 c -6.34377,4.18876 -1.46267,-6.21202 -6.65677,-14.0783 -5.1941,-7.86628 -14.06675,-10.50512 -7.72299,-14.69387 3.14247,-2.07497 22.16291,-1.8975 25.80272,0.96452 3.70788,2.9156 -6.31598,8.12849 -6.77574,12.86311 -0.76132,7.83993 1.69654,10.75581 -4.64722,14.94454 z"
         fill="#ae0000"
         stroke="none"
         stroke-width="0"
         stroke-linecap="butt"
         id="path107" />
      <path
         d="m 256.24341,113.55735 c -7.02512,2.90461 -0.25342,-6.37691 -3.85517,-15.08806 -3.60175,-8.71115 -11.80985,-12.99071 -4.78471,-15.8953 3.48,-1.43883 22.11888,2.35602 25.14731,5.85858 3.08511,3.5681 -7.74779,6.77758 -9.10039,11.33812 -2.23975,7.55166 -0.38191,10.88208 -7.40705,13.78666 z"
         fill="#ae0000"
         stroke="none"
         stroke-width="0"
         stroke-linecap="butt"
         id="path109" />
      <path
         d="m 277.52302,124.73419 c -7.58007,-0.57595 2.6498,-5.80578 3.36396,-15.20508 0.71414,-9.3993 -4.68168,-16.92077 2.8984,-16.34482 3.75489,0.2853 18.679,12.07847 19.80229,16.57041 1.14429,4.576 -9.97178,2.55488 -13.23582,6.01523 -5.40486,5.72988 -5.24871,9.54021 -12.82878,8.96427 z"
         fill="#ae0000"
         stroke="none"
         stroke-width="0"
         stroke-linecap="butt"
         id="path111" />
      <path
         d="m 298.85015,146.45545 c -7.16755,-2.53283 4.07221,-4.91385 7.21289,-13.80164 3.14068,-8.88779 -0.10687,-17.55618 7.06068,-15.02335 3.55055,1.25467 14.88266,16.53184 14.79562,21.16128 -0.0887,4.71605 -10.293,-0.1341 -14.34652,2.35526 -6.71214,4.12205 -7.55512,7.84127 -14.72267,5.30844 z"
         fill="#ae0000"
         stroke="none"
         stroke-width="0"
         stroke-linecap="butt"
         id="path113" />
      <path
         d="m 307.58146,171.35445 c -5.81508,-4.89632 5.54269,-3.16343 11.61412,-10.37415 6.07143,-7.21072 6.08717,-16.46746 11.90225,-11.57113 2.88056,2.42545 8.10164,20.71615 6.38865,25.01791 -1.74504,4.38224 -9.58535,-3.75297 -14.25612,-2.8519 -7.7342,1.49207 -9.83382,4.67559 -15.6489,-0.22073 z"
         fill="#ae0000"
         stroke="none"
         stroke-width="0"
         stroke-linecap="butt"
         id="path115" />
      <path
         d="m 204.18897,118.5226 c -4.37494,6.21684 -3.63107,-5.24828 -11.33996,-10.67319 -7.70889,-5.42491 -16.93229,-4.63982 -12.55735,-10.85664 2.16719,-3.0796 19.93768,-9.8633 24.37147,-8.52886 4.51676,1.35942 -2.90974,9.87408 -1.60796,14.44937 2.15554,7.57613 5.50877,9.3925 1.13383,15.60932 z"
         fill="#ae0000"
         stroke="none"
         stroke-width="0"
         stroke-linecap="butt"
         id="path117" />
      <path
         d="m 296.44102,223.29371 c 0.40199,-7.59126 5.86504,2.51598 15.27823,3.01443 9.41319,0.49845 16.80898,-5.06839 16.40699,2.52288 -0.19914,3.76045 -11.64706,18.95103 -16.11204,20.17701 -4.54856,1.24891 -2.78281,-9.91058 -6.31709,-13.09442 -5.85229,-5.27207 -9.65807,-5.0286 -9.25608,-12.61989 z"
         fill="#ae0000"
         stroke="none"
         stroke-width="0"
         stroke-linecap="butt"
         id="path119" />
      <path
         d="m 277.19327,237.69052 c 3.7825,-6.59408 4.09995,4.89074 12.27663,9.58098 8.17668,4.69027 17.28826,3.05727 13.50576,9.65135 -1.87371,3.26646 -18.94224,11.66133 -23.48027,10.74182 -4.62295,-0.93674 1.98598,-10.10048 0.26751,-14.53611 -2.84558,-7.34484 -6.3521,-8.84399 -2.56963,-15.43804 z"
         fill="#ae0000"
         stroke="none"
         stroke-width="0"
         stroke-linecap="butt"
         id="path121" />
      <path
         d="m 248.40739,247.59165 c 5.37129,-5.37945 2.68261,5.79073 9.35315,12.45109 6.67054,6.66036 15.8927,7.4601 10.52143,12.83954 -2.66074,2.66478 -21.32794,6.31785 -25.46913,4.24665 -4.21869,-2.10995 4.55137,-9.23302 4.04915,-13.96332 -0.83164,-7.83279 -3.82587,-10.19451 1.5454,-15.57396 z"
         fill="#ae0000"
         stroke="none"
         stroke-width="0"
         stroke-linecap="butt"
         id="path123" />
      <path
         d="m 222.17471,244.75572 c 6.92249,-3.14136 0.46971,6.36458 4.36501,14.94848 3.8953,8.5839 12.24394,12.58243 5.32145,15.72377 -3.42915,1.55613 -22.1861,-1.60394 -25.33167,-5.00168 -3.20443,-3.46131 7.51329,-7.03666 8.71034,-11.64047 1.98217,-7.62334 0.0124,-10.88877 6.93487,-14.0301 z"
         fill="#ae0000"
         stroke="none"
         stroke-width="0"
         stroke-linecap="butt"
         id="path125" />
      <path
         d="m 199.20022,233.60201 c 7.59947,-0.1931 -2.04946,6.0439 -1.81,15.46722 0.23945,9.42334 6.36784,16.36099 -1.23163,16.55407 -3.76449,0.0957 -19.80411,-10.12882 -21.37563,-14.48423 -1.60091,-4.4369 9.66254,-3.54961 12.56013,-7.32213 4.79812,-6.2468 4.25766,-10.02185 11.85713,-10.21495 z"
         fill="#ae0000"
         stroke="none"
         stroke-width="0"
         stroke-linecap="butt"
         id="path127" />
      <path
         d="m 182.19501,211.39313 c 7.25881,2.25807 -3.88212,5.06535 -6.68211,14.0663 -2.79999,9.00094 0.77534,17.53935 -6.4835,15.28131 -3.59576,-1.11855 -15.50139,-15.95309 -15.5907,-20.58251 -0.091,-4.716 10.29067,-0.25799 14.24644,-2.89989 6.55031,-4.37466 7.25103,-8.12326 14.50984,-5.86522 z"
         fill="#ae0000"
         stroke="none"
         stroke-width="0"
         stroke-linecap="butt"
         id="path129" />
      <path
         d="m 171.15929,183.4547 c 6.22467,4.36382 -5.24174,3.64044 -10.65288,11.35901 -5.41112,7.71857 -4.60951,16.94057 -10.83419,12.57675 -3.08347,-2.16168 -9.89896,-19.91997 -8.57246,-24.35616 1.35133,-4.51919 9.87931,2.89203 14.45225,1.5821 7.57227,-2.16911 9.3826,-5.52554 15.60725,-1.16169 z"
         fill="#ae0000"
         stroke="none"
         stroke-width="0"
         stroke-linecap="butt"
         id="path131" />
      <path
         d="m 173.50571,160.0987 c 2.11909,7.30061 -6.36635,-0.44531 -15.4191,2.18239 -9.05275,2.6277 -14.20406,10.31871 -16.32315,3.0181 -1.04972,-3.61647 4.76026,-21.72867 8.57291,-24.35601 3.88401,-2.67647 5.8899,8.44238 10.27519,10.28549 7.26151,3.05199 10.77506,1.56942 12.89415,8.87003 z"
         fill="#ae0000"
         stroke="none"
         stroke-width="0"
         stroke-linecap="butt"
         id="path133" />
      <path
         d="m 184.73125,135.18952 c -1.26912,7.49526 -5.53814,-3.17142 -14.83224,-4.74513 -9.29412,-1.57371 -17.27899,3.10915 -16.00987,-4.3861 0.62869,-3.71288 13.74165,-17.49179 18.31772,-18.1981 4.6617,-0.71954 1.62903,10.16418 4.77523,13.732 5.20973,5.90788 9.0183,6.10207 7.74918,13.59732 z"
         fill="#ae0000"
         stroke="none"
         stroke-width="0"
         stroke-linecap="butt"
         id="path135" />
      <path
         d="m 318.01346,177.66985 c 0,42.00986 -34.4142,76.0656 -76.86629,76.0656 -42.45209,0 -76.86629,-34.05573 -76.86629,-76.0656 0,-42.00986 34.4142,-76.0656 76.86629,-76.0656 42.45209,0 76.86629,34.05573 76.86629,76.0656 z"
         fill="#d61b1b"
         stroke="none"
         stroke-width="0"
         stroke-linecap="butt"
         id="path137" />
      <path
         d="m 175.00655,173.62219 c 1.28076,4.41245 -3.84779,-0.26913 -9.31923,1.31903 -5.47144,1.58816 -8.58486,6.23657 -9.86562,1.82412 -0.63444,-2.18578 2.87708,-13.13269 5.18144,-14.72065 2.34748,-1.61766 3.55982,5.10254 6.21028,6.21651 4.38883,1.84461 6.51239,0.94856 7.79315,5.36101 z"
         fill="#c20000"
         stroke="none"
         stroke-width="0"
         stroke-linecap="butt"
         id="path145" />
      <path
         d="m 178.64257,147.73965 c -0.24789,4.58787 -3.54315,-1.52446 -9.23211,-1.83183 -5.68896,-0.30737 -10.16254,3.05242 -9.91465,-1.53547 0.12281,-2.27267 7.05171,-11.44635 9.75112,-12.18443 2.74993,-0.7519 1.67553,5.99174 3.80955,7.91834 3.53367,3.19021 5.834,3.0455 5.58611,7.63339 z"
         fill="#c20000"
         stroke="none"
         stroke-width="0"
         stroke-linecap="butt"
         id="path147" />
      <path
         d="m 304.78562,149.96531 c 2.25445,-1.78419 1.61953,-8.58327 4.31492,-7.65466 2.64589,0.91156 8.96541,10.5152 8.9406,12.79104 -0.0501,4.59431 -4.29643,0.95152 -9.99335,0.8894 -5.69692,-0.0621 -9.38157,5.82369 -9.33145,1.22939 0.0501,-4.59431 2.33619,-4.30078 6.06928,-7.25515 z"
         data-paper-data="{&quot;index&quot;:null}"
         fill="#c20000"
         stroke="none"
         stroke-width="0"
         stroke-linecap="butt"
         id="path149" />
      <path
         d="m 291.60362,124.40992 c 1.53895,-2.42846 -1.30519,-8.63664 1.54567,-8.65005 2.79847,-0.0132 11.9344,6.96546 12.6624,9.12186 1.46957,4.35321 -3.74133,2.31669 -9.13931,4.139 -5.39799,1.82231 -6.93272,8.59458 -8.40229,4.24137 -1.46957,-4.35321 0.78521,-4.83093 3.33353,-8.85217 z"
         data-paper-data="{&quot;index&quot;:null}"
         fill="#c20000"
         stroke="none"
         stroke-width="0"
         stroke-linecap="butt"
         id="path151" />
      <path
         d="m 173.17608,207.46691 c -2.49029,1.43673 -2.85258,8.25582 -5.38394,6.94447 -2.48486,-1.28725 -7.33807,-11.70902 -6.982,-13.95695 0.71881,-4.53798 4.38921,-0.31553 10.01631,0.57579 5.62711,0.89132 10.12983,-4.39497 9.41102,0.14301 -0.71881,4.53798 -2.93775,3.91457 -7.06139,6.29365 z"
         data-paper-data="{&quot;index&quot;:null}"
         fill="#c20000"
         stroke="none"
         stroke-width="0"
         stroke-linecap="butt"
         id="path153" />
      <path
         d="m 182.49488,234.6699 c -1.87631,2.17838 0.0332,8.73464 -2.7892,8.33263 -2.77054,-0.39464 -10.79246,-8.62962 -11.19857,-10.86907 -0.81977,-4.52086 4.0389,-1.74698 9.64473,-2.76354 5.60584,-1.01656 8.11073,-7.49303 8.9305,-2.97218 0.81977,4.52086 -1.48056,4.66503 -4.58746,8.27216 z"
         data-paper-data="{&quot;index&quot;:null}"
         fill="#c20000"
         stroke="none"
         stroke-width="0"
         stroke-linecap="butt"
         id="path155" />
      <path
         d="m 299.52145,205.27611 c -0.62437,-4.55195 3.76757,0.82676 9.41195,0.0525 5.64441,-0.7742 9.40172,-4.91951 10.02611,-0.36756 0.30929,2.25486 -4.75942,12.57354 -7.27048,13.80886 -2.55809,1.25846 -2.77857,-5.56666 -5.23848,-7.05485 -4.0733,-2.46423 -6.30472,-1.88704 -6.92908,-6.43899 z"
         data-paper-data="{&quot;index&quot;:null}"
         fill="#c20000"
         stroke="none"
         stroke-width="0"
         stroke-linecap="butt"
         id="path157" />
      <path
         d="m 285.54697,229.25175 c 0.91353,-4.50285 3.28331,2.0243 8.86682,3.15709 5.58351,1.1328 10.49875,-1.53951 9.58523,2.96334 -0.45256,2.23051 -8.64386,10.29706 -11.42198,10.63404 -2.83012,0.34326 -0.78483,-6.17191 -2.61548,-8.3888 -3.03128,-3.67093 -5.32812,-3.86284 -4.41459,-8.36569 z"
         data-paper-data="{&quot;index&quot;:null}"
         fill="#c20000"
         stroke="none"
         stroke-width="0"
         stroke-linecap="butt"
         id="path159" />
      <path
         d="m 305.54848,183.91867 c -2.5253,-3.83837 3.756,-0.87779 8.51555,-4.00914 4.75955,-3.13136 6.36337,-8.4913 8.88864,-4.65293 1.25093,1.90136 1.12451,13.39707 -0.60893,15.59404 -1.7659,2.23811 -4.90648,-3.82554 -7.76759,-4.10818 -4.73762,-0.46802 -6.50239,1.01456 -9.02767,-2.82381 z"
         data-paper-data="{&quot;index&quot;:null}"
         fill="#c20000"
         stroke="none"
         stroke-width="0"
         stroke-linecap="butt"
         id="path161" />
      <path
         d="m 211.86383,249.25155 c 0.0859,2.87374 5.92016,6.4224 3.56633,8.03081 -2.31058,1.57886 -13.7879,0.91737 -15.59912,-0.46089 -3.65633,-2.78233 1.80089,-4.01515 5.25098,-8.54899 3.45007,-4.53384 0.92676,-11.00317 4.58309,-8.22086 3.65633,2.78233 2.05635,4.44137 2.19868,9.19993 z"
         data-paper-data="{&quot;index&quot;:null}"
         fill="#c20000"
         stroke="none"
         stroke-width="0"
         stroke-linecap="butt"
         id="path163" />
      <path
         d="m 240.23593,253.92784 c 1.02994,2.68423 7.70861,4.1076 6.01783,6.40297 -1.65972,2.25319 -12.71183,5.41822 -14.87654,4.71525 -4.36991,-1.41913 0.37423,-4.38456 2.13392,-9.80328 1.75969,-5.41872 -2.75803,-10.69218 1.61188,-9.27305 4.36991,1.41913 3.40743,3.51337 5.11292,7.95812 z"
         data-paper-data="{&quot;index&quot;:null}"
         fill="#c20000"
         stroke="none"
         stroke-width="0"
         stroke-linecap="butt"
         id="path165" />
      <path
         d="m 269.20919,249.31568 c 1.02994,2.68423 7.70861,4.1076 6.01783,6.40295 -1.65972,2.25319 -12.71183,5.41822 -14.87652,4.71525 -4.36991,-1.41913 0.37423,-4.38456 2.13392,-9.80328 1.75969,-5.41872 -2.75803,-10.69218 1.61188,-9.27305 4.36991,1.41913 3.40743,3.51339 5.11292,7.95814 z"
         data-paper-data="{&quot;index&quot;:null}"
         fill="#c20000"
         stroke="none"
         stroke-width="0"
         stroke-linecap="butt"
         id="path167" />
      <path
         d="m 241.02648,111.83658 c -4.23627,1.77881 -0.17431,-3.85325 -2.38004,-9.1062 -2.20573,-5.25295 -7.18079,-7.81223 -2.94452,-9.59104 2.09848,-0.88115 13.37616,1.35058 15.21812,3.45742 1.87643,2.14627 -4.66018,4.122 -5.46257,6.88281 -1.32863,4.57155 -0.19474,6.57819 -4.43101,8.357 z"
         fill="#c20000"
         stroke="none"
         stroke-width="0"
         stroke-linecap="butt"
         id="path169" />
      <path
         d="m 266.05414,117.98338 c -4.58602,0.2804 1.10764,-3.69472 0.75998,-9.38136 -0.34768,-5.68664 -4.19876,-9.74496 0.38724,-10.02538 2.27173,-0.13887 12.18014,5.69119 13.22319,8.28805 1.06258,2.64546 -5.75979,2.3522 -7.4287,4.6933 -2.76349,3.87653 -2.35572,6.14501 -6.94174,6.4254 z"
         fill="#c20000"
         stroke="none"
         stroke-width="0"
         stroke-linecap="butt"
         id="path171" />
      <path
         d="m 185.72267,123.26308 c -1.71309,-2.30894 -8.52868,-1.88603 -7.5166,-4.55122 0.9935,-2.61621 10.78928,-8.63361 13.06326,-8.53793 4.59052,0.19315 0.81727,4.32399 0.57776,10.01621 -0.2395,5.69222 5.52872,9.55835 0.9382,9.3652 -4.59052,-0.19315 -4.22594,-2.46898 -7.06263,-6.29227 z"
         data-paper-data="{&quot;index&quot;:null}"
         fill="#c20000"
         stroke="none"
         stroke-width="0"
         stroke-linecap="butt"
         id="path173" />
      <path
         d="m 216.88567,114.34971 c -2.61406,3.77846 -2.21988,-3.15437 -6.90516,-6.3958 -4.68529,-3.24143 -10.25589,-2.72232 -7.64183,-6.50077 1.29491,-1.87171 12.00217,-6.05754 14.68829,-5.27248 2.73641,0.79976 -1.71084,5.98176 -0.90196,8.74065 1.33939,4.56839 3.37475,5.64991 0.76069,9.42837 z"
         fill="#c20000"
         stroke="none"
         stroke-width="0"
         stroke-linecap="butt"
         id="path175" />
      <path
         d="m 234.74765,217.29033 c 0,0 4.03379,-5.59657 5.85933,-5.52733 1.87664,0.0712 5.70872,4.4298 5.70872,4.4298"
         fill="none"
         stroke="#860000"
         stroke-width="0.5"
         stroke-linecap="round"
         id="path177" />
      <path
         d="m 242.67869,182.24211 c 0,0 -0.94033,-1.39675 0.30573,-2.52596 3.77201,-3.41837 24.96676,-20.37718 24.96676,-20.37718"
         data-paper-data="{&quot;index&quot;:null}"
         fill="none"
         stroke="#860000"
         stroke-width="0.5"
         stroke-linecap="round"
         id="path179" />
      <path
         d="m 207.07208,161.07903 c 0,0 23.0952,14.26289 27.25398,17.19854 1.37379,0.96975 0.60982,2.47024 0.60982,2.47024"
         data-paper-data="{&quot;index&quot;:null}"
         fill="none"
         stroke="#000000"
         stroke-width="0"
         stroke-linecap="round"
         id="path181" />
      <path
         d="m 262.10653,181.68053 c 6.06895,-2.08113 6.38317,3.44742 6.38317,9.49164 0,6.04423 -5.03153,6.92461 -10.92835,6.92461 -5.89682,0 -10.42591,-0.88036 -10.42591,-6.92461 0,-6.04423 11.09998,-8.1642 14.97109,-9.49164 z"
         data-paper-data="{&quot;index&quot;:null}"
         fill="#ffffff"
         stroke="none"
         stroke-width="0"
         stroke-linecap="butt"
         id="path183" />
      <path
         d="m 279.45528,176.7587 c -13.0183,1.72424 -26.03661,8.25607 -39.05491,12.38433"
         data-paper-data="{&quot;index&quot;:null}"
         fill="none"
         stroke="#860000"
         stroke-width="0.5"
         stroke-linecap="round"
         id="path185"
         sodipodi:nodetypes="cc" />
      <path
         d="m 257.89203,183.63469 c 2.53018,0 4.58127,3.07665 4.58127,6.8719 0,3.79525 -2.0511,6.8719 -4.58127,6.8719 -2.53018,0 -4.5813,-3.07667 -4.5813,-6.8719 0,-3.79525 2.05112,-6.8719 4.5813,-6.8719 z"
         data-paper-data="{&quot;index&quot;:null}"
         fill="#000000"
         stroke="#000000"
         stroke-width="0.5"
         stroke-linecap="butt"
         id="path187" />
      <path
         d="m 214.38285,182.1344 c -6.02113,-2.06473 -6.33287,3.42025 -6.33287,9.41685 0,5.9966 4.99188,6.87004 10.84224,6.87004 5.85035,0 10.34376,-0.87342 10.34376,-6.87004 0,-5.99661 -11.01252,-8.09987 -14.85313,-9.41685 z"
         data-paper-data="{&quot;index&quot;:null}"
         fill="#ffffff"
         stroke="none"
         stroke-width="0"
         stroke-linecap="butt"
         id="path183-7"
         style="mix-blend-mode:normal" />
      <path
         d="m 197.1708,177.25135 c 12.91572,1.71065 25.83146,8.19102 38.74718,12.28675"
         data-paper-data="{&quot;index&quot;:null}"
         fill="none"
         stroke="#860000"
         stroke-width="0.49606"
         stroke-linecap="round"
         id="path185-7"
         sodipodi:nodetypes="cc"
         style="mix-blend-mode:normal" />
      <path
         d="m 218.56414,184.07316 c -2.51024,0 -4.54517,3.05241 -4.54517,6.81775 0,3.76535 2.03494,6.81775 4.54517,6.81775 2.51025,0 4.5452,-3.05242 4.5452,-6.81775 0,-3.76534 -2.03495,-6.81775 -4.5452,-6.81775 z"
         data-paper-data="{&quot;index&quot;:null}"
         fill="#000000"
         stroke="#000000"
         stroke-width="0.49606"
         stroke-linecap="butt"
         id="path187-2"
         style="mix-blend-mode:normal" />
      <path
         d="m 210.52455,159.14807 c 0,0 21.19475,16.95881 24.96676,20.3772 1.24603,1.12924 0.30573,2.52598 0.30573,2.52598"
         data-paper-data="{&quot;index&quot;:null}"
         fill="none"
         stroke="#860000"
         stroke-width="0.5"
         stroke-linecap="round"
         id="path189" />
    </g>
  </g>
</svg>
